<?xml version="1.0" standalone="no"?>
<!DOCTYPE svg PUBLIC "-//W3C//DTD SVG 20010904//EN"
 "http://www.w3.org/TR/2001/REC-SVG-20010904/DTD/svg10.dtd">
<svg version="1.0" xmlns="http://www.w3.org/2000/svg"
 width="419.000000pt" height="136.000000pt" viewBox="0 0 419.000000 136.000000"
 preserveAspectRatio="xMidYMid meet">

<g transform="translate(0.000000,136.000000) scale(0.100000,-0.100000)"
fill="#000000" stroke="none">
<path d="M2380 864 c0 -171 -4 -283 -10 -295 -10 -17 -22 -19 -148 -19 -94 0
-142 4 -150 12 -17 17 -16 222 1 236 7 7 66 13 133 14 l119 3 1 58 0 57 -115
0 c-140 0 -177 -9 -221 -55 -41 -42 -47 -76 -40 -231 4 -94 8 -117 26 -141 43
-58 68 -64 239 -64 172 0 209 9 249 64 20 27 21 44 24 333 l3 304 -56 0 -55 0
0 -276z"/>
<path d="M3040 857 c0 -207 -3 -286 -12 -295 -8 -8 -55 -12 -144 -12 -167 0
-164 -3 -164 129 0 62 4 103 13 114 10 14 34 17 132 19 l120 3 3 58 3 57 -119
0 c-130 0 -173 -10 -214 -48 -44 -40 -50 -68 -46 -213 3 -121 5 -137 26 -167
42 -58 69 -65 244 -65 176 1 202 8 245 73 23 32 23 39 23 321 0 159 0 292 0
297 0 4 -25 8 -55 10 l-55 3 0 -284z"/>
<path d="M426 1078 c-14 -19 -16 -65 -16 -329 0 -195 4 -309 10 -311 5 -1 32
-1 60 0 l50 4 2 191 3 191 111 -195 111 -194 39 0 38 0 111 193 110 193 3
-190 2 -191 60 0 60 0 0 308 c0 340 -2 352 -60 352 -36 0 -33 3 -195 -278 -70
-123 -131 -220 -135 -215 -4 4 -54 89 -110 188 -173 303 -171 300 -207 303
-23 2 -35 -3 -47 -20z"/>
<path d="M1405 920 c-17 -5 -46 -26 -65 -45 l-35 -36 -3 -147 c-3 -140 -2
-149 20 -181 44 -66 71 -74 247 -75 176 -1 204 7 249 75 22 32 23 41 20 176
-3 154 -9 170 -72 217 -25 19 -43 21 -179 23 -84 1 -166 -2 -182 -7z m313
-122 c15 -15 16 -201 2 -229 -10 -17 -22 -19 -141 -19 -72 0 -139 5 -150 10
-17 10 -19 22 -19 118 0 71 4 112 12 120 17 17 279 17 296 0z"/>
<path d="M3354 911 c-62 -28 -86 -74 -92 -180 -7 -138 3 -196 44 -241 42 -46
93 -60 219 -60 111 0 115 2 115 60 l0 48 -121 4 c-150 4 -149 2 -149 140 0
137 1 138 169 138 123 0 131 -1 145 -22 21 -30 20 -44 -4 -68 -18 -18 -33 -20
-135 -20 l-115 0 0 -56 0 -56 133 4 c116 3 136 6 168 26 69 42 93 155 49 227
-37 60 -86 75 -246 75 -114 0 -146 -4 -180 -19z"/>
</g>
</svg>
